<?xml version="1.0" standalone="no"?>
<!DOCTYPE svg PUBLIC "-//W3C//DTD SVG 20010904//EN"
 "http://www.w3.org/TR/2001/REC-SVG-20010904/DTD/svg10.dtd">
<svg version="1.0" xmlns="http://www.w3.org/2000/svg"
 width="725.000000pt" height="725.000000pt" viewBox="0 0 725.000000 725.000000"
 preserveAspectRatio="xMidYMid meet">
<metadata>
Created by potrace 1.11, written by Peter Selinger 2001-2013
</metadata>
<g transform="translate(0.000000,725.000000) scale(0.100000,-0.100000)"
fill="#000000" stroke="none">
<path d="M5563 6321 c-65 -22 -130 -65 -258 -171 -55 -45 -109 -89 -120 -98
-11 -10 -72 -56 -135 -103 -231 -173 -296 -194 -610 -194 -161 1 -240 4 -400
20 -19 2 -80 7 -135 10 -55 4 -116 9 -135 11 -51 6 -387 5 -444 -1 -27 -2 -74
-7 -105 -10 -83 -8 -289 -51 -378 -80 -180 -57 -382 -158 -534 -268 -143 -103
-567 -456 -664 -552 -191 -189 -356 -423 -496 -705 -136 -275 -246 -626 -274
-875 -4 -33 -9 -69 -11 -80 -23 -113 -22 -536 0 -675 3 -14 7 -45 10 -70 72
-563 310 -1188 543 -1423 79 -80 140 -110 212 -105 92 7 178 59 360 216 251
217 388 304 543 344 128 33 438 31 763 -7 219 -25 580 -25 776 1 140 18 378
80 494 129 75 32 230 112 290 150 149 95 627 486 775 635 316 317 579 797 699
1280 16 63 32 135 36 160 4 25 9 52 10 60 49 280 51 624 5 925 -5 33 -12 78
-15 100 -13 81 -56 270 -89 388 -79 278 -160 479 -286 702 -68 122 -183 245
-263 284 -53 25 -95 26 -164 2z m153 -26 c45 -19 158 -132 210 -210 75 -112
70 -116 -8 -5 -91 129 -199 209 -289 213 -21 1 -39 5 -39 10 0 13 89 8 126 -8z
m-26 -55 l25 -20 -30 10 c-16 5 -48 13 -70 16 -40 7 -40 7 -10 14 38 8 54 4
85 -20z m-42 -45 c3 -3 -65 2 -83 5 -5 1 1 5 15 9 20 6 51 0 68 -14z m163 -92
c25 -26 58 -66 73 -88 l28 -40 -28 35 c-16 19 -62 68 -104 109 -41 41 -61 65
-45 53 17 -11 51 -42 76 -69z m-231 47 c-14 -4 -32 -4 -40 -1 -11 3 -8 7 10
11 14 4 32 4 40 1 11 -3 8 -7 -10 -11z m136 -19 c21 -15 50 -41 64 -57 l25
-29 -25 21 c-14 12 -49 36 -77 54 -29 17 -53 34 -53 36 0 12 32 0 66 -25z
m-226 5 c0 -2 -7 -7 -16 -10 -8 -3 -12 -2 -9 4 6 10 25 14 25 6z m66 -29 c4
-4 -8 -7 -27 -7 -23 0 -30 3 -20 9 15 10 37 9 47 -2z m128 -17 c20 -19 20 -19
-27 -2 -58 22 -73 37 -27 28 19 -3 44 -15 54 -26z m-55 -35 c12 -12 8 -12 -28
-3 -22 6 -41 14 -41 19 0 12 53 0 69 -16z m-114 5 c4 -6 -6 -10 -22 -9 -25 0
-26 1 -8 9 11 5 21 9 22 9 1 1 5 -3 8 -9z m281 -114 c69 -79 52 -71 -33 16
-96 97 -97 98 -50 63 21 -16 58 -51 83 -79z m-221 74 c3 -6 -5 -10 -19 -10
-14 0 -28 5 -31 10 -3 6 5 10 19 10 14 0 28 -4 31 -10z m-100 -10 c-3 -5 -14
-10 -23 -9 -14 0 -13 2 3 9 27 11 27 11 20 0z m183 -4 c15 -8 38 -26 52 -41
25 -27 24 -27 -27 5 -70 42 -88 69 -25 36z m182 -52 c38 -47 117 -172 97 -153
-4 3 -24 32 -46 65 -22 32 -56 82 -76 109 -32 44 -18 33 25 -21z m-310 18 c0
-10 -36 -9 -46 1 -4 4 5 7 19 7 15 0 27 -4 27 -8z m115 -23 c20 -20 20 -20
-20 -4 -53 22 -70 40 -30 31 17 -4 39 -16 50 -27z m-210 11 c-3 -5 -14 -10
-23 -9 -14 0 -13 2 3 9 27 11 27 11 20 0z m50 -30 c4 -6 -6 -10 -22 -9 -25 0
-26 1 -8 9 11 5 21 9 22 9 1 1 5 -3 8 -9z m100 -12 c7 -7 1 -8 -20 -4 -16 4
-34 12 -40 18 -7 7 -1 8 20 4 17 -4 35 -12 40 -18z m142 -78 c23 -29 13 -29
-19 1 -18 16 -36 29 -40 29 -4 0 -13 10 -19 22 -11 21 -8 20 27 -7 21 -16 44
-36 51 -45z m58 -3 c44 -55 69 -97 35 -57 -12 14 -36 41 -53 60 -18 19 -39 44
-47 54 -14 18 -14 18 5 7 11 -7 38 -36 60 -64z m-252 43 c10 -10 9 -12 -6 -6
-10 3 -25 6 -33 6 -9 0 -13 4 -10 9 8 12 33 8 49 -9z m-83 6 c0 -2 -11 -6 -25
-8 -13 -3 -22 -1 -19 3 5 9 44 13 44 5z m170 -21 c17 -9 30 -20 30 -26 0 -11
-55 15 -65 31 -9 14 1 13 35 -5z m-130 -23 c0 -11 -39 -12 -45 -1 -4 5 5 9 19
9 14 0 26 -4 26 -8z m92 -20 c11 -13 10 -14 -12 -7 -14 4 -31 13 -38 20 -11
10 -9 12 12 8 14 -3 31 -12 38 -21z m-189 11 c-7 -2 -19 -2 -25 0 -7 3 -2 5
12 5 14 0 19 -2 13 -5z m488 -68 l10 -20 -16 20 c-9 11 -21 29 -26 40 l-10 20
16 -20 c9 -11 21 -29 26 -40z m-450 36 c-8 -5 -20 -7 -28 -4 -21 8 -15 13 15
13 20 0 23 -3 13 -9z m104 -12 c16 -16 -20 -10 -41 7 -18 14 -18 15 6 8 14 -3
29 -10 35 -15z m-175 7 c0 -2 -7 -7 -16 -10 -8 -3 -12 -2 -9 4 6 10 25 14 25
6z m335 -38 c45 -50 48 -61 9 -28 -22 19 -46 43 -53 53 -10 16 -10 17 6 9 10
-6 27 -21 38 -34z m88 -40 c58 -79 70 -98 64 -98 -2 0 -19 21 -37 48 -19 26
-37 49 -40 52 -12 10 -51 70 -46 70 3 0 30 -33 59 -72z m-153 32 l35 -30 -37
17 c-20 9 -39 22 -42 30 -8 21 7 15 44 -17z m-240 12 c0 -4 -10 -9 -22 -9 -18
-2 -20 0 -8 7 18 12 30 13 30 2z m85 -2 c8 -13 -15 -13 -35 0 -12 8 -11 10 7
10 12 0 25 -4 28 -10z m499 -16 c3 -8 2 -12 -4 -9 -6 3 -10 10 -10 16 0 14 7
11 14 -7z m-403 -14 c31 -25 13 -26 -26 0 -20 13 -24 20 -14 20 9 0 27 -9 40
-20z m-146 -10 c17 -8 16 -8 -7 -7 -16 1 -28 5 -28 9 0 10 9 9 35 -2z m100
-21 c16 -16 -20 -10 -41 7 -18 14 -18 15 6 8 14 -3 29 -10 35 -15z m473 -4
c-3 -3 -9 2 -12 12 -6 14 -5 15 5 6 7 -7 10 -15 7 -18z m-100 -87 c18 -32 31
-58 29 -58 -5 0 -34 48 -79 130 -16 30 -17 31 -1 11 10 -13 33 -51 51 -83z
m-205 36 c16 -19 27 -34 25 -34 -7 0 -78 67 -78 74 0 12 26 -7 53 -40z m-218
26 c4 -7 -3 -8 -22 -4 -38 9 -42 14 -10 14 14 0 29 -5 32 -10z m170 -40 c10
-16 -5 -11 -36 11 -16 11 -29 25 -29 30 0 11 55 -24 65 -41z m-358 34 c-3 -3
-12 -4 -19 -1 -8 3 -5 6 6 6 11 1 17 -2 13 -5z m481 -46 c44 -60 64 -95 33
-58 -36 44 -82 110 -77 110 3 0 23 -24 44 -52z m-368 32 c12 -8 11 -10 -7 -10
-12 0 -25 5 -28 10 -8 13 15 13 35 0z m180 -32 c0 -5 -13 -2 -30 7 -16 9 -30
20 -30 26 0 5 14 2 30 -8 17 -9 30 -21 30 -25z m-235 2 c13 -5 14 -9 5 -9 -8
0 -24 4 -35 9 -13 5 -14 9 -5 9 8 0 24 -4 35 -9z m161 -5 c15 -11 16 -14 3
-15 -8 0 -24 7 -35 15 -15 11 -16 14 -3 15 8 0 24 -7 35 -15z m-51 -26 c16
-16 -20 -10 -41 7 -18 14 -18 15 6 8 14 -3 29 -10 35 -15z m-171 2 c4 -5 -3
-7 -14 -4 -23 6 -26 13 -6 13 8 0 17 -4 20 -9z m346 -62 c0 -13 -58 31 -64 48
-3 8 10 2 29 -13 19 -14 35 -30 35 -35z m72 -14 c14 -26 -48 32 -64 60 -7 13
0 10 22 -10 17 -16 36 -39 42 -50z m-676 56 c-3 -5 -15 -7 -26 -4 -28 7 -25
13 6 13 14 0 23 -4 20 -9z m120 -3 c7 -11 -38 -10 -56 2 -11 8 -7 10 18 8 19
-1 36 -6 38 -10z m100 -9 c9 -14 -42 -10 -55 4 -8 11 -5 13 19 9 17 -2 33 -8
36 -13z m144 11 c13 -9 13 -10 0 -9 -8 0 -24 4 -35 9 l-20 9 20 0 c11 0 27 -4
35 -9z m-55 -31 c16 -16 -20 -10 -41 7 -18 14 -18 15 6 8 14 -3 29 -10 35 -15z
m215 1 c14 -10 22 -21 19 -24 -2 -3 -18 6 -34 19 -35 29 -22 33 15 5z m234
-72 c11 -18 17 -31 14 -28 -11 9 -74 95 -82 110 -14 28 49 -48 68 -82z m-287
50 c18 -21 18 -21 -14 -4 -37 19 -51 36 -24 29 11 -3 28 -14 38 -25z m367 16
c3 -8 2 -12 -4 -9 -6 3 -10 10 -10 16 0 14 7 11 14 -7z m89 -24 c3 -11 2 -18
-3 -15 -4 3 -10 14 -13 25 -3 11 -2 18 3 15 4 -3 10 -14 13 -25z m-539 9 c14
-7 27 -18 30 -26 6 -15 -13 -7 -49 21 -24 18 -16 20 19 5z m-43 -29 c5 0 9 -4
9 -9 0 -12 -38 -2 -47 12 -4 7 0 8 11 4 10 -4 22 -7 27 -7z m-65 -26 c18 -14
18 -14 -6 -3 -31 14 -36 19 -24 19 6 0 19 -7 30 -16z m312 -35 l15 -22 -31 23
c-36 27 -56 61 -21 36 11 -8 28 -24 37 -37z m45 17 c27 -35 38 -60 15 -34 -50
54 -60 68 -52 68 5 0 21 -16 37 -34z m-133 4 c14 -10 22 -21 19 -24 -2 -3 -18
6 -34 19 -35 29 -22 33 15 5z m-40 -25 c0 -11 -19 -4 -41 15 l-24 21 33 -16
c17 -8 32 -18 32 -20z m270 -47 c30 -55 22 -48 -25 22 -20 30 -28 47 -18 38
11 -10 30 -37 43 -60z m-1142 37 c-2 0 -32 1 -68 4 -64 5 -65 5 -20 11 25 3
55 1 68 -4 12 -5 21 -10 20 -11z m788 10 c10 -8 14 -15 8 -15 -5 0 -19 7 -30
15 -10 8 -14 15 -8 15 5 0 19 -7 30 -15z m-56 -15 c8 -5 11 -10 5 -10 -5 0
-17 5 -25 10 -8 5 -10 10 -5 10 6 0 17 -5 25 -10z m-2675 -20 c-3 -5 -12 -10
-18 -10 -7 0 -6 4 3 10 19 12 23 12 15 0z m1928 -4 c160 -22 380 -240 516
-513 97 -196 150 -372 186 -623 17 -112 12 -346 -9 -470 -63 -373 -312 -727
-641 -911 -33 -19 -73 -42 -90 -52 -16 -9 -73 -38 -125 -64 -118 -58 -304
-166 -396 -229 -101 -71 -147 -107 -297 -237 -11 -9 -23 -17 -26 -17 -9 1 105
104 188 172 92 74 199 146 305 207 84 47 107 59 211 109 56 26 102 51 235 125
93 52 161 106 265 212 285 288 400 633 362 1090 -41 492 -313 993 -625 1150
-64 32 -78 36 -167 43 -57 5 -64 7 -35 12 36 6 78 4 143 -4z m937 -58 c0 -5
-7 -2 -16 6 -8 9 -24 21 -35 26 -10 6 -19 15 -19 21 0 5 16 -2 35 -17 19 -14
35 -31 35 -36z m36 31 c24 -26 25 -30 7 -20 -13 6 -27 20 -33 31 -15 28 -8 25
26 -11z m-106 -25 c0 -3 -13 3 -30 13 -16 9 -30 21 -30 26 0 5 14 -1 30 -13
17 -12 30 -24 30 -26z m192 -8 c17 -26 15 -25 -16 8 -37 39 -48 58 -21 36 9
-7 25 -27 37 -44z m-270 16 c11 -13 8 -12 -19 2 -18 9 -33 18 -33 20 0 9 41
-8 52 -22z m-833 3 c19 -4 60 -19 91 -35 287 -145 538 -587 604 -1065 14 -99
14 -372 1 -445 -53 -289 -157 -491 -355 -691 -128 -129 -211 -185 -482 -323
-243 -123 -256 -130 -367 -205 -122 -82 -201 -147 -311 -254 -52 -50 -84 -78
-70 -62 144 174 365 344 595 457 425 210 496 255 653 418 175 181 290 432 320
694 11 96 7 323 -7 416 -89 581 -453 1083 -793 1091 -48 2 -50 2 -18 8 37 7
83 6 139 -4z m1156 -27 c16 -24 22 -38 14 -31 -15 12 -53 73 -46 73 2 0 17
-19 32 -42z m-3305 28 c0 -2 -8 -10 -17 -17 -16 -13 -17 -12 -4 4 13 16 21 21
21 13z m2915 -6 c3 -6 -1 -7 -9 -4 -18 7 -21 14 -7 14 6 0 13 -4 16 -10z
m-3015 -24 c0 -2 -8 -10 -17 -17 -16 -13 -17 -12 -4 4 13 16 21 21 21 13z
m2201 -11 c45 -10 143 -61 199 -104 122 -94 254 -268 339 -446 45 -94 117
-301 127 -363 3 -21 13 -68 21 -107 24 -109 25 -384 2 -518 -51 -292 -189
-529 -424 -723 -33 -28 -80 -63 -105 -79 -64 -41 -283 -155 -288 -150 -2 2 42
27 99 55 357 178 587 442 673 773 33 126 41 193 41 352 -1 213 -25 362 -91
555 -54 155 -153 345 -230 440 -106 130 -206 213 -321 267 -66 32 -90 38 -167
42 -68 4 -81 7 -51 11 50 6 132 4 176 -5z m-2171 -9 c0 -2 -8 -10 -17 -17 -16
-13 -17 -12 -4 4 13 16 21 21 21 13z m2643 -101 c46 -52 152 -224 196 -317 86
-185 158 -439 177 -628 13 -134 8 -359 -12 -465 -56 -306 -204 -571 -436 -780
-75 -68 -201 -158 -244 -175 -12 -5 -45 -24 -75 -43 -30 -19 -100 -57 -155
-85 -235 -118 -509 -301 -658 -441 -21 -20 -36 -30 -31 -23 9 17 71 74 150
139 144 119 358 254 531 335 45 21 115 58 155 83 40 25 77 45 82 45 19 0 186
124 253 187 205 196 328 407 393 678 39 161 45 396 17 600 -36 255 -146 547
-281 750 -56 85 -66 96 -154 189 l-56 59 65 -44 c36 -24 73 -52 83 -64z m387
68 c0 -7 -39 17 -46 28 -3 6 5 3 20 -6 14 -10 26 -19 26 -22z m55 11 c17 -14
21 -21 10 -15 -30 14 -61 40 -50 41 6 0 24 -12 40 -26z m75 -9 c24 -29 5 -24
-25 7 -21 22 -24 28 -9 20 11 -6 27 -18 34 -27z m75 -23 c-7 -7 -34 18 -47 42
-8 16 -3 14 21 -8 17 -16 29 -32 26 -34z m55 3 l25 -30 -33 29 c-17 17 -32 34
-32 40 0 6 3 6 8 1 4 -6 18 -23 32 -40z m-3361 33 c-2 -2 -22 -19 -44 -38
l-40 -35 34 38 c19 20 39 37 45 37 5 0 7 -1 5 -2z m101 -2 c0 -2 -8 -10 -17
-17 -16 -13 -17 -12 -4 4 13 16 21 21 21 13z m1940 -8 c0 -3 -9 -6 -20 -5 -11
1 -20 5 -20 9 0 3 9 6 20 5 11 -1 20 -5 20 -9z m175 -12 c246 -75 502 -406
621 -806 14 -47 43 -189 49 -235 3 -29 8 -63 11 -76 5 -27 5 -234 0 -289 -39
-395 -259 -718 -627 -919 -42 -22 -80 -41 -85 -41 -5 0 29 21 76 46 305 166
502 410 581 719 27 106 31 140 34 285 4 180 -9 290 -50 450 -119 461 -435 833
-742 873 -12 2 -26 7 -30 11 -11 12 106 -2 162 -18z m-2075 10 c0 -2 -8 -10
-17 -17 -16 -13 -17 -12 -4 4 13 16 21 21 21 13z m-272 -56 c-26 -23 -73 -69
-104 -103 -32 -35 -43 -44 -26 -21 33 44 158 164 170 164 4 0 -14 -18 -40 -40z
m142 37 c0 -2 -12 -14 -27 -28 l-28 -24 24 28 c23 25 31 32 31 24z m50 0 c0
-2 -15 -16 -32 -33 l-33 -29 29 33 c28 30 36 37 36 29z m2119 -36 c93 -35 162
-83 261 -181 184 -183 306 -416 376 -716 25 -108 28 -138 28 -314 1 -214 -3
-248 -39 -376 -44 -149 -128 -298 -236 -417 -46 -51 -186 -169 -229 -192 -24
-13 -1 7 67 58 224 169 362 398 408 677 14 82 15 346 2 430 -48 314 -176 588
-379 811 -71 78 -198 166 -291 201 -63 24 -75 27 -157 34 -105 9 -84 17 30 11
69 -4 123 -13 159 -26z m971 -28 c0 -8 -38 17 -51 33 -9 11 -2 9 19 -6 17 -13
32 -25 32 -27z m290 16 c15 -28 5 -23 -15 7 -9 15 -12 23 -6 20 6 -4 16 -16
21 -27z m-379 4 c13 -16 12 -17 -3 -4 -10 7 -18 15 -18 17 0 8 8 3 21 -13z
m135 -15 l29 -33 -32 29 c-31 28 -38 36 -30 36 2 0 16 -15 33 -32z m-3356 -53
c-41 -41 -77 -75 -79 -75 -3 0 28 34 69 75 41 41 77 75 79 75 3 0 -28 -34 -69
-75z m2035 65 c-3 -5 -14 -10 -23 -9 -14 0 -13 2 3 9 27 11 27 11 20 0z m1400
-38 c-5 -5 -45 36 -45 46 0 3 11 -5 25 -18 14 -13 23 -26 20 -28z m-3410 -54
c-115 -120 -123 -128 -100 -98 24 31 178 190 184 190 3 0 -35 -42 -84 -92z
m2197 81 c72 -16 129 -42 207 -94 270 -180 479 -563 527 -965 7 -59 7 -292 1
-325 -3 -11 -8 -40 -12 -65 -12 -75 -14 -81 -36 -149 -77 -232 -240 -434 -451
-560 -63 -38 -42 -17 29 30 82 53 198 162 260 243 83 111 161 294 178 421 4
28 9 61 11 75 5 36 5 237 0 290 -28 273 -135 547 -292 750 -158 205 -341 324
-536 349 l-63 8 62 2 c34 0 86 -4 115 -10z m1268 -24 c13 -14 19 -25 14 -25
-8 1 -50 50 -41 50 2 0 14 -11 27 -25z m-3560 2 c0 -2 -10 -12 -22 -23 l-23
-19 19 23 c18 21 26 27 26 19z m200 0 c0 -1 -39 -41 -87 -87 l-88 -85 85 88
c79 81 90 92 90 84z m50 0 c0 -2 -15 -16 -32 -33 l-33 -29 29 33 c28 30 36 37
36 29z m2005 -21 c28 -8 63 -19 79 -25 40 -16 183 -113 227 -153 266 -247 435
-666 423 -1048 -3 -78 -5 -109 -19 -213 -17 -124 -118 -336 -202 -425 -7 -7
-18 -21 -25 -30 -19 -25 -123 -118 -161 -142 -23 -16 -21 -13 8 12 141 117
223 218 284 349 102 220 120 474 57 795 -3 12 -21 71 -41 130 -110 331 -353
615 -610 715 -62 24 -110 35 -230 53 -16 3 13 3 65 0 52 -2 118 -10 145 -18z
m1392 -41 c21 -42 1 -19 -26 30 -13 22 -15 31 -6 20 9 -11 23 -33 32 -50z
m-3357 52 c0 -2 -10 -12 -22 -23 l-23 -19 19 23 c18 21 26 27 26 19z m3044
-36 c-3 -3 -15 6 -27 18 l-22 24 27 -19 c14 -10 24 -21 22 -23z m-1324 10 c0
-5 -9 -7 -20 -4 -11 3 -20 7 -20 9 0 2 9 4 20 4 11 0 20 -4 20 -9z m165 -18
c404 -93 749 -612 760 -1144 6 -306 -70 -528 -244 -713 -43 -45 -148 -132
-181 -151 -23 -13 -12 -3 72 63 190 151 302 359 325 602 31 328 -47 647 -223
911 -87 132 -245 279 -375 352 -81 44 -203 84 -266 86 -13 1 -23 5 -23 10 0
11 67 4 155 -16z m929 -46 c35 -46 98 -177 139 -287 60 -162 89 -285 122 -518
8 -59 9 -304 1 -372 -47 -396 -240 -741 -546 -977 -74 -57 -275 -179 -400
-243 -147 -75 -355 -205 -500 -312 -80 -59 -75 -55 -135 -102 -36 -29 -43 -32
-25 -12 85 94 433 327 650 436 132 66 316 176 396 236 96 73 242 227 308 328
134 202 202 390 231 641 7 58 7 293 0 345 -2 19 -7 58 -11 85 -3 28 -8 59 -10
70 -2 11 -7 34 -10 50 -34 193 -145 475 -248 635 -45 69 -46 71 -16 50 16 -12
41 -36 54 -53z m296 48 c13 -14 21 -25 18 -25 -2 0 -15 11 -28 25 -13 14 -21
25 -18 25 2 0 15 -11 28 -25z m89 -48 c-2 -2 -17 12 -33 32 l-30 36 34 -32
c19 -18 32 -34 29 -36z m-3529 50 c0 -2 -10 -12 -22 -23 l-23 -19 19 23 c18
21 26 27 26 19z m1943 -14 c-7 -2 -19 -2 -25 0 -7 3 -2 5 12 5 14 0 19 -2 13
-5z m118 -7 c292 -34 577 -266 735 -600 92 -195 134 -389 129 -601 -4 -142 -6
-163 -31 -262 -41 -166 -152 -340 -278 -435 -26 -20 -21 -12 16 21 151 137
242 320 267 536 9 76 7 276 -3 321 -2 12 -7 38 -10 58 -75 470 -449 887 -853
951 -24 4 -43 11 -43 16 0 6 3 8 8 6 4 -3 32 -8 63 -11z m1530 -38 c16 -30 3
-20 -27 20 -23 30 -24 33 -5 17 13 -11 27 -28 32 -37z m-3371 39 c0 -2 -12
-14 -27 -28 l-28 -24 24 28 c23 25 31 32 31 24z m3110 -22 c13 -14 21 -25 18
-25 -2 0 -15 11 -28 25 -13 14 -21 25 -18 25 2 0 15 -11 28 -25z m330 -54 c0
-10 -49 53 -50 63 0 6 11 -5 25 -24 14 -19 25 -36 25 -39z m-1773 53 c-3 -3
-12 -4 -19 -1 -8 3 -5 6 6 6 11 1 17 -2 13 -5z m223 -35 c279 -75 552 -340
678 -659 59 -149 84 -279 88 -450 5 -291 -61 -483 -222 -646 -33 -33 -41 -40
-18 -15 95 106 136 176 178 303 31 91 41 171 41 318 -1 169 -12 242 -60 387
-106 320 -322 569 -608 703 -83 39 -213 80 -254 80 -12 0 -24 4 -27 8 -7 12
117 -6 204 -29z m1290 16 c13 -14 21 -25 18 -25 -2 0 -15 11 -28 25 -13 14
-21 25 -18 25 2 0 15 -11 28 -25z m-3440 12 c0 -2 -10 -12 -22 -23 l-23 -19
19 23 c18 21 26 27 26 19z m370 -1 c0 -2 -8 -10 -17 -17 -16 -13 -17 -12 -4 4
13 16 21 21 21 13z m-300 -19 c0 -2 -10 -12 -22 -23 l-23 -19 19 23 c18 21 26
27 26 19z m230 -1 c0 -2 -8 -10 -17 -17 -16 -13 -17 -12 -4 4 13 16 21 21 21
13z m1672 -12 c10 -3 30 -7 45 -10 57 -10 160 -48 237 -87 290 -149 527 -470
591 -797 23 -119 37 -353 22 -377 -3 -5 -8 -32 -11 -62 -8 -72 -56 -208 -97
-276 -42 -69 -106 -143 -162 -187 -27 -21 -17 -8 28 37 155 153 216 312 221
575 3 135 -1 166 -32 319 -9 46 -47 147 -80 216 -108 229 -311 434 -539 548
-75 37 -209 85 -264 93 -60 10 -81 24 -26 18 28 -3 58 -8 67 -10z m-1978 -29
c-14 -19 -29 -35 -31 -35 -5 0 7 18 36 53 26 31 23 18 -5 -18z m155 -25 c-29
-33 -54 -60 -57 -60 -5 0 16 25 72 88 51 55 40 35 -15 -28z m3366 50 c3 -5 2
-10 -4 -10 -5 0 -13 5 -16 10 -3 6 -2 10 4 10 5 0 13 -4 16 -10z m-3185 -3 c0
-2 -19 -21 -42 -42 l-43 -40 40 43 c36 39 45 47 45 39z m1585 -25 c351 -79
633 -303 790 -626 85 -177 116 -310 115 -511 0 -172 -20 -266 -81 -391 -70
-143 -183 -247 -368 -339 -88 -44 -312 -124 -391 -140 -58 -12 -211 -90 -272
-139 -80 -64 -142 -145 -193 -251 -38 -78 -54 -130 -81 -274 -22 -115 -116
-198 -236 -208 -51 -5 -66 -2 -122 26 -35 17 -75 46 -89 64 -13 18 -52 100
-87 182 -34 83 -72 173 -85 200 -12 28 -26 61 -30 75 -4 14 -16 43 -26 65 -61
135 -168 477 -193 620 -39 216 -58 494 -42 640 48 455 375 852 811 984 176 53
406 62 580 23z m1687 -27 c11 -21 8 -18 -32 30 -24 29 -24 29 -2 10 13 -11 28
-29 34 -40z m-3674 -1 c-18 -25 -37 -48 -43 -52 -5 -3 3 12 19 34 45 60 48 64
53 64 2 0 -11 -21 -29 -46z m302 43 c0 -2 -19 -21 -42 -42 l-43 -40 40 43 c36
39 45 47 45 39z m3180 -32 c13 -14 21 -25 18 -25 -2 0 -15 11 -28 25 -13 14
-21 25 -18 25 2 0 15 -11 28 -25z m-3400 -15 c-12 -16 -24 -30 -26 -30 -3 0 4
14 16 30 12 17 24 30 26 30 3 0 -4 -13 -16 -30z m3325 -76 c52 -112 125 -360
141 -479 3 -27 9 -59 11 -70 3 -11 7 -114 8 -230 3 -238 -9 -340 -64 -510 -88
-273 -281 -551 -498 -718 -71 -55 -245 -163 -353 -220 -224 -118 -441 -257
-653 -414 -76 -57 -135 -98 -132 -93 14 23 272 215 392 292 170 110 153 100
277 165 59 32 154 85 210 119 56 33 108 63 116 66 38 14 193 139 266 214 167
170 278 347 349 560 13 40 26 83 29 96 2 13 8 41 14 63 20 76 24 121 27 305 3
206 -10 343 -51 504 -40 157 -116 369 -151 421 -19 29 -16 37 8 17 12 -9 36
-49 54 -88z m306 89 c13 -16 12 -17 -3 -4 -10 7 -18 15 -18 17 0 8 8 3 21 -13z
m-3531 4 c0 -2 -10 -12 -22 -23 l-23 -19 19 23 c18 21 26 27 26 19z m-50 -11
c0 -2 -8 -10 -17 -17 -16 -13 -17 -12 -4 4 13 16 21 21 21 13z m-143 -78
c-151 -215 -245 -417 -345 -738 l-11 -35 5 35 c19 122 140 413 245 587 56 95
137 213 145 213 3 0 -15 -28 -39 -62z m303 59 c0 -2 -12 -14 -27 -28 l-28 -24
24 28 c23 25 31 32 31 24z m3271 -14 c13 -16 12 -17 -3 -4 -10 7 -18 15 -18
17 0 8 8 3 21 -13z m64 -23 l20 -25 -22 19 c-13 11 -23 24 -23 29 0 6 1 8 3 6
1 -2 11 -15 22 -29z m-3405 7 c0 -2 -10 -12 -22 -23 l-23 -19 19 23 c18 21 26
27 26 19z m-313 -84 c-24 -38 -62 -103 -86 -145 -23 -43 -45 -78 -47 -78 -7 0
70 140 123 223 23 37 45 67 48 67 3 0 -15 -30 -38 -67z m173 63 c0 -2 -8 -10
-17 -17 -16 -13 -17 -12 -4 4 13 16 21 21 21 13z m210 1 c0 -2 -10 -12 -22
-23 l-23 -19 19 23 c18 21 26 27 26 19z m3401 -14 c13 -16 12 -17 -3 -4 -10 7
-18 15 -18 17 0 8 8 3 21 -13z m-3681 -25 c-21 -35 -67 -93 -54 -68 14 26 65
100 69 100 3 0 -5 -15 -15 -32z m230 29 c0 -2 -10 -12 -22 -23 l-23 -19 19 23
c18 21 26 27 26 19z m3578 -22 c-3 -3 -9 2 -12 12 -6 14 -5 15 5 6 7 -7 10
-15 7 -18z m-3744 -35 c-15 -22 -29 -40 -31 -40 -5 0 3 15 29 53 30 43 31 32
2 -13z m236 37 c0 -2 -10 -12 -22 -23 l-23 -19 19 23 c18 21 26 27 26 19z
m3219 -166 c31 -103 64 -260 76 -356 3 -27 8 -66 11 -85 7 -51 7 -267 -1 -325
-29 -239 -65 -366 -149 -540 -128 -263 -303 -464 -546 -623 -99 -65 -295 -182
-306 -182 -20 0 -483 -293 -626 -397 -27 -19 -48 -32 -48 -30 0 3 40 35 88 70
215 158 411 280 672 419 363 194 602 430 750 741 68 143 123 328 139 467 8 64
7 389 -1 445 -22 168 -77 387 -134 540 -5 14 1 10 18 -10 15 -18 38 -72 57
-134z m-3279 145 c0 -2 -8 -10 -17 -17 -16 -13 -17 -12 -4 4 13 16 21 21 21
13z m3348 -21 c-3 -3 -9 2 -12 12 -6 14 -5 15 5 6 7 -7 10 -15 7 -18z m62 -16
c15 -28 5 -23 -15 7 -9 15 -12 23 -6 20 6 -4 16 -16 21 -27z m-3409 -12 c-10
-9 -11 -8 -5 6 3 10 9 15 12 12 3 -3 0 -11 -7 -18z m-160 -4 c-5 -10 -17 -27
-26 -38 -16 -19 -17 -19 -3 5 26 46 29 50 34 50 3 0 0 -8 -5 -17z m209 13 c0
-2 -8 -10 -17 -17 -16 -13 -17 -12 -4 4 13 16 21 21 21 13z m-305 -36 c-9 -16
-18 -30 -21 -30 -2 0 2 14 11 30 9 17 18 30 21 30 2 0 -2 -13 -11 -30z m35
-10 c-6 -11 -13 -20 -16 -20 -2 0 0 9 6 20 6 11 13 20 16 20 2 0 0 -9 -6 -20z
m290 16 c0 -2 -8 -10 -17 -17 -16 -13 -17 -12 -4 4 13 16 21 21 21 13z m-406
-68 c-135 -236 -241 -530 -269 -744 -4 -27 -12 -53 -17 -59 -7 -7 -9 -7 -6 0
3 6 9 33 12 60 4 28 9 57 11 65 2 8 6 26 9 40 9 55 58 220 87 295 48 127 189
405 204 405 3 0 -11 -28 -31 -62z m40 -5 c-10 -16 -46 -84 -81 -153 -70 -139
-85 -156 -23 -25 45 95 108 205 117 205 3 0 -3 -12 -13 -27z m78 -5 c-11 -18
-36 -66 -57 -105 -20 -40 -39 -73 -41 -73 -7 0 63 140 94 187 22 35 26 27 4
-9z m3553 -19 c60 -114 103 -569 74 -779 -17 -121 -19 -135 -44 -230 -69 -268
-205 -505 -415 -723 -112 -117 -246 -212 -525 -373 -171 -98 -192 -110 -257
-150 -26 -16 -78 -48 -117 -71 -38 -24 -130 -83 -205 -133 -75 -49 -136 -88
-136 -86 0 9 229 165 370 253 80 50 215 130 300 178 180 102 359 212 420 260
66 51 252 251 312 335 132 186 234 435 264 640 3 25 10 70 14 100 8 55 5 388
-3 425 -3 11 -8 43 -11 70 -9 66 -45 242 -57 272 -19 50 -7 58 16 12z m-3595
14 c0 -5 -10 -19 -21 -33 l-21 -25 18 33 c18 32 24 38 24 25z m71 -16 c-10 -9
-11 -8 -5 6 3 10 9 15 12 12 3 -3 0 -11 -7 -18z m40 0 c-10 -9 -11 -8 -5 6 3
10 9 15 12 12 3 -3 0 -11 -7 -18z m42 8 c-3 -9 -8 -14 -10 -11 -3 3 -2 9 2 15
9 16 15 13 8 -4z m-114 -65 c-22 -41 -33 -53 -22 -22 8 20 34 62 39 62 2 0 -6
-18 -17 -40z m-86 -7 c-7 -20 -33 -60 -33 -52 0 9 31 69 35 69 3 0 2 -8 -2
-17z m160 2 c-3 -9 -8 -14 -10 -11 -3 3 -2 9 2 15 9 16 15 13 8 -4z m-50 -20
c-3 -9 -8 -14 -10 -11 -3 3 -2 9 2 15 9 16 15 13 8 -4z m-297 -32 c-8 -15 -15
-25 -16 -21 0 12 23 58 27 54 3 -2 -2 -17 -11 -33z m322 2 c-6 -14 -13 -23
-15 -21 -5 5 15 46 22 46 3 0 -1 -11 -7 -25z m-95 -30 c-9 -19 -18 -33 -21
-31 -4 5 26 66 33 66 3 0 -3 -16 -12 -35z m50 20 c-3 -9 -8 -14 -10 -11 -3 3
-2 9 2 15 9 16 15 13 8 -4z m3653 -69 c3 -17 7 -41 9 -52 20 -91 27 -399 12
-524 -39 -339 -182 -660 -409 -920 -127 -145 -299 -277 -538 -415 -47 -27
-168 -98 -269 -159 -102 -61 -201 -120 -220 -132 -20 -12 -92 -57 -161 -101
-154 -97 -150 -95 -150 -90 0 3 69 49 153 104 218 142 273 177 352 223 39 22
88 51 110 65 22 13 87 51 145 83 110 62 323 199 375 241 17 14 75 70 130 126
198 200 342 448 415 715 65 237 74 542 25 820 -8 47 -15 90 -15 95 1 20 32
-49 36 -79z m-3816 -30 c-48 -104 -101 -260 -125 -371 -27 -120 -36 -150 -29
-95 7 59 57 248 87 330 30 81 99 232 104 227 2 -2 -15 -43 -37 -91z m218 59
c-6 -14 -13 -23 -15 -21 -5 5 15 46 22 46 3 0 -1 -11 -7 -25z m-75 0 c-3 -9
-8 -14 -10 -11 -3 3 -2 9 2 15 9 16 15 13 8 -4z m30 -20 c-9 -19 -18 -33 -21
-31 -4 5 26 66 33 66 3 0 -3 -16 -12 -35z m-322 -8 c-10 -9 -11 -8 -5 6 3 10
9 15 12 12 3 -3 0 -11 -7 -18z m169 -77 c-47 -108 -102 -284 -121 -387 -7 -40
-16 -73 -20 -73 -9 0 24 150 57 260 27 89 114 304 120 297 2 -2 -14 -46 -36
-97z m61 57 c-10 -9 -11 -8 -5 6 3 10 9 15 12 12 3 -3 0 -11 -7 -18z m42 8
c-3 -9 -8 -14 -10 -11 -3 3 -2 9 2 15 9 16 15 13 8 -4z m148 -8 c-10 -9 -11
-8 -5 6 3 10 9 15 12 12 3 -3 0 -11 -7 -18z m-80 -10 c-10 -9 -11 -8 -5 6 3
10 9 15 12 12 3 -3 0 -11 -7 -18z m42 8 c-3 -9 -8 -14 -10 -11 -3 3 -2 9 2 15
9 16 15 13 8 -4z m-400 -20 c-3 -9 -8 -14 -10 -11 -3 3 -2 9 2 15 9 16 15 13
8 -4z m228 -22 c-12 -20 -14 -14 -5 12 4 9 9 14 11 11 3 -2 0 -13 -6 -23z m30
-20 c-12 -20 -14 -14 -5 12 4 9 9 14 11 11 3 -2 0 -13 -6 -23z m34 -9 c-8 -20
-15 -39 -15 -42 0 -3 -2 -3 -5 0 -6 5 22 78 30 78 3 0 -2 -16 -10 -36z m48 21
c-3 -9 -8 -14 -10 -11 -3 3 -2 9 2 15 9 16 15 13 8 -4z m68 -12 c-12 -20 -14
-14 -5 12 4 9 9 14 11 11 3 -2 0 -13 -6 -23z m-430 -10 c-12 -20 -14 -14 -5
12 4 9 9 14 11 11 3 -2 0 -13 -6 -23z m78 -123 c-69 -210 -95 -367 -98 -590
-1 -74 -4 -137 -7 -139 -3 -3 -4 58 -3 134 1 134 14 263 39 389 10 53 95 329
107 349 16 26 5 -14 -38 -143z m312 123 c-12 -20 -14 -14 -5 12 4 9 9 14 11
11 3 -2 0 -13 -6 -23z m3675 -5 c13 -26 17 -66 17 -217 1 -165 -6 -296 -18
-341 -2 -8 -7 -31 -10 -50 -23 -140 -108 -369 -191 -515 -99 -173 -255 -365
-381 -467 -87 -71 -263 -191 -378 -257 -49 -29 -128 -75 -175 -103 -413 -246
-558 -333 -577 -346 -13 -8 -23 -12 -23 -9 0 4 38 30 85 59 47 29 114 70 148
92 115 72 401 243 512 306 216 123 414 267 515 376 214 229 381 539 434 804 2
14 9 48 15 76 15 75 25 214 25 334 0 113 -11 267 -20 281 -3 5 -3 9 0 9 3 0
13 -14 22 -32z m-3735 -49 c-11 -24 -20 -41 -20 -37 -1 12 31 89 35 85 3 -2
-4 -24 -15 -48z m-109 9 c-8 -8 -9 -4 -5 13 4 13 8 18 11 10 2 -7 -1 -18 -6
-23z m39 5 c-12 -20 -14 -14 -5 12 4 9 9 14 11 11 3 -2 0 -13 -6 -23z m159 19
c0 -5 -7 -17 -15 -28 -14 -18 -14 -17 -4 9 12 27 19 34 19 19z m-58 -54 c-8
-8 -9 -4 -5 13 4 13 8 18 11 10 2 -7 -1 -18 -6 -23z m-96 -57 c-25 -71 -69
-233 -81 -301 -3 -19 -8 -37 -11 -40 -9 -8 4 63 27 154 23 95 80 268 86 262 3
-2 -7 -36 -21 -75z m-66 32 c-11 -17 -11 -17 -6 0 3 10 6 24 7 30 0 9 2 9 5 0
3 -7 0 -20 -6 -30z m41 10 c-12 -20 -14 -14 -5 12 4 9 9 14 11 11 3 -2 0 -13
-6 -23z m152 2 c-3 -9 -8 -14 -10 -11 -3 3 -2 9 2 15 9 16 15 13 8 -4z m-432
-26 c-5 -13 -10 -19 -10 -12 -1 15 10 45 15 40 3 -2 0 -15 -5 -28z m379 -16
c-11 -17 -11 -17 -6 0 3 10 6 24 7 30 0 9 2 9 5 0 3 -7 0 -20 -6 -30z m-39 -4
c-5 -13 -10 -19 -10 -12 -1 15 10 45 15 40 3 -2 0 -15 -5 -28z m-81 -16 c-11
-17 -11 -17 -6 0 3 10 6 24 7 30 0 9 2 9 5 0 3 -7 0 -20 -6 -30z m193 12 c-3
-9 -8 -14 -10 -11 -3 3 -2 9 2 15 9 16 15 13 8 -4z m3722 -115 c-1 -91 -10
-231 -19 -276 -2 -12 -7 -37 -10 -55 -32 -202 -133 -457 -260 -653 -117 -180
-290 -368 -421 -454 -38 -25 -89 -61 -112 -79 -35 -28 -211 -137 -378 -233
-16 -10 -97 -57 -180 -105 -82 -48 -170 -99 -195 -113 -25 -13 -49 -28 -55
-32 -5 -4 -36 -21 -67 -39 -96 -54 -65 -28 40 34 53 32 113 68 132 80 19 12
103 62 185 110 83 48 177 104 210 125 33 20 65 39 70 41 43 17 260 159 384
251 115 85 258 244 365 406 200 304 290 618 290 1015 0 79 3 103 11 90 5 -10
10 -61 10 -113z m-4194 69 c-5 -13 -10 -19 -10 -12 -1 15 10 45 15 40 3 -2 0
-15 -5 -28z m340 -10 c-5 -13 -10 -19 -10 -12 -1 15 10 45 15 40 3 -2 0 -15
-5 -28z m-97 -80 c-30 -111 -36 -126 -29 -79 7 45 47 182 52 177 2 -3 -8 -46
-23 -98z m277 74 c-12 -20 -14 -14 -5 12 4 9 9 14 11 11 3 -2 0 -13 -6 -23z
m-294 -5 c-3 -8 -6 -5 -6 6 -1 11 2 17 5 13 3 -3 4 -12 1 -19z m137 -47 c-10
-33 -19 -59 -21 -57 -3 2 3 32 13 65 9 34 19 60 21 58 2 -3 -4 -32 -13 -66z
m-377 17 c-3 -8 -6 -5 -6 6 -1 11 2 17 5 13 3 -3 4 -12 1 -19z m415 -5 c-3
-16 -7 -22 -10 -15 -4 13 4 42 11 42 2 0 2 -12 -1 -27z m-78 -17 c-3 -15 -8
-25 -11 -23 -2 3 -1 17 3 31 3 15 8 25 11 23 2 -3 1 -17 -3 -31z m143 2 c-3
-8 -6 -5 -6 6 -1 11 2 17 5 13 3 -3 4 -12 1 -19z m-490 -20 c-3 -8 -6 -5 -6 6
-1 11 2 17 5 13 3 -3 4 -12 1 -19z m225 -10 c-8 -8 -9 -4 -5 13 4 13 8 18 11
10 2 -7 -1 -18 -6 -23z m295 10 c-3 -8 -6 -5 -6 6 -1 11 2 17 5 13 3 -3 4 -12
1 -19z m3739 -117 c-7 -97 -11 -126 -33 -226 -8 -38 -17 -81 -19 -95 -3 -14
-21 -72 -40 -129 -111 -332 -351 -674 -601 -857 -43 -32 -101 -74 -129 -95
-49 -37 -177 -118 -279 -177 -27 -16 -90 -53 -140 -82 -167 -98 -476 -270
-484 -270 -3 0 14 13 39 29 43 27 62 38 210 121 36 20 115 66 175 102 61 36
173 102 250 148 77 45 163 99 190 120 28 21 69 49 91 63 312 193 624 662 710
1067 8 41 17 84 20 95 2 11 7 47 10 80 4 33 8 67 10 75 1 8 3 47 4 85 0 56 3
66 12 51 7 -13 9 -49 4 -105z m-4240 8 c-23 -141 -25 -150 -20 -79 2 36 6 76
9 90 3 14 8 40 11 58 4 18 8 31 11 29 2 -3 -3 -47 -11 -98z m291 -36 c-13 -67
-25 -125 -28 -128 -6 -6 11 102 32 203 21 102 18 46 -4 -75z m197 88 c-4 -17
-9 -30 -11 -27 -3 2 -2 19 2 36 9 41 17 33 9 -9z m-107 7 c-3 -8 -6 -5 -6 6
-1 11 2 17 5 13 3 -3 4 -12 1 -19z m-40 -20 c-3 -8 -6 -5 -6 6 -1 11 2 17 5
13 3 -3 4 -12 1 -19z m-374 -3 c-3 -9 -8 -14 -10 -11 -3 3 -2 9 2 15 9 16 15
13 8 -4z m224 -7 c-3 -8 -6 -5 -6 6 -1 11 2 17 5 13 3 -3 4 -12 1 -19z m178
-28 c-9 -41 -17 -33 -9 9 4 17 9 30 11 27 3 -2 2 -19 -2 -36z m72 18 c-3 -8
-6 -5 -6 6 -1 11 2 17 5 13 3 -3 4 -12 1 -19z m-110 -20 c-3 -8 -6 -5 -6 6 -1
11 2 17 5 13 3 -3 4 -12 1 -19z m70 -10 c-3 -7 -5 -2 -5 12 0 14 2 19 5 13 2
-7 2 -19 0 -25z m-220 -10 c-3 -7 -5 -2 -5 12 0 14 2 19 5 13 2 -7 2 -19 0
-25z m290 10 c-3 -8 -6 -5 -6 6 -1 11 2 17 5 13 3 -3 4 -12 1 -19z m70 0 c-3
-8 -6 -5 -6 6 -1 11 2 17 5 13 3 -3 4 -12 1 -19z m-104 -8 c-3 -12 -8 -19 -11
-16 -5 6 5 36 12 36 2 0 2 -9 -1 -20z m-228 -52 c-4 -28 -8 -60 -10 -70 -2
-11 -5 -39 -6 -63 -2 -24 -6 -42 -10 -39 -5 2 -6 10 -4 17 2 7 6 39 10 72 3
33 7 69 10 80 2 11 4 28 4 38 1 9 4 17 7 17 3 0 2 -23 -1 -52z m112 15 c-3
-10 -5 -4 -5 12 0 17 2 24 5 18 2 -7 2 -21 0 -30z m-370 5 c-3 -8 -6 -5 -6 6
-1 11 2 17 5 13 3 -3 4 -12 1 -19z m510 -10 c-3 -7 -5 -2 -5 12 0 14 2 19 5
13 2 -7 2 -19 0 -25z m-290 -15 c-3 -10 -5 -4 -5 12 0 17 2 24 5 18 2 -7 2
-21 0 -30z m185 7 c-2 -17 -8 -32 -12 -35 -7 -5 -5 18 6 53 7 23 11 12 6 -18z
m35 8 c-3 -8 -6 -5 -6 6 -1 11 2 17 5 13 3 -3 4 -12 1 -19z m140 0 c-3 -8 -6
-5 -6 6 -1 11 2 17 5 13 3 -3 4 -12 1 -19z m3738 -100 c-20 -110 -21 -116 -35
-168 -7 -25 -14 -52 -15 -60 -26 -115 -146 -371 -248 -525 -188 -286 -377
-452 -802 -704 -236 -141 -308 -182 -504 -285 -79 -42 -145 -75 -147 -73 -2 1
86 52 194 111 235 130 643 373 704 419 24 18 83 62 133 97 369 265 654 770
711 1255 5 46 9 55 15 38 5 -13 2 -57 -6 -105z m-3848 80 c-3 -8 -6 -5 -6 6
-1 11 2 17 5 13 3 -3 4 -12 1 -19z m-291 -30 c-3 -24 -9 -113 -12 -198 -4 -85
-9 -157 -12 -160 -5 -6 5 306 12 335 2 11 5 30 5 43 1 12 4 22 7 22 3 0 3 -19
0 -42z m361 20 c-3 -8 -6 -5 -6 6 -1 11 2 17 5 13 3 -3 4 -12 1 -19z m-182
-53 c-4 -31 -9 -54 -12 -51 -3 2 -1 30 2 61 4 31 9 54 12 51 3 -2 1 -30 -2
-61z m212 43 c-3 -8 -6 -5 -6 6 -1 11 2 17 5 13 3 -3 4 -12 1 -19z m-422 2
c-3 -5 -9 -40 -12 -77 -3 -38 -8 -70 -11 -73 -2 -3 -2 29 1 70 4 41 7 78 7 83
0 4 5 7 11 7 5 0 7 -4 4 -10z m141 -17 c-4 -9 -9 -57 -13 -107 -3 -50 -8 -93
-11 -96 -2 -3 -2 38 1 90 6 91 13 130 24 130 3 0 2 -8 -1 -17z m241 -40 c-3
-10 -5 -2 -5 17 0 19 2 27 5 18 2 -10 2 -26 0 -35z m-461 29 c-3 -5 -8 -64
-12 -133 -3 -68 -9 -126 -11 -129 -3 -3 -3 45 0 105 4 61 6 122 7 138 0 15 5
27 11 27 5 0 8 -4 5 -8z m321 -24 c-3 -7 -5 -2 -5 12 0 14 2 19 5 13 2 -7 2
-19 0 -25z m70 0 c-3 -7 -5 -2 -5 12 0 14 2 19 5 13 2 -7 2 -19 0 -25z m-250
-10 c-3 -7 -5 -2 -5 12 0 14 2 19 5 13 2 -7 2 -19 0 -25z m280 -25 c-3 -10 -5
-2 -5 17 0 19 2 27 5 18 2 -10 2 -26 0 -35z m-470 -205 c-1 -46 -3 -9 -3 82 0
91 2 128 3 83 2 -46 2 -120 0 -165z m540 220 c-3 -8 -6 -5 -6 6 -1 11 2 17 5
13 3 -3 4 -12 1 -19z m-106 -35 c-4 -28 -6 -32 -9 -15 -3 22 3 52 11 52 1 0 1
-17 -2 -37z m-139 -8 c-2 -19 -6 -35 -8 -35 -2 0 -4 16 -4 35 0 19 4 35 8 35
4 0 6 -16 4 -35z m205 -12 c-3 -10 -5 -2 -5 17 0 19 2 27 5 18 2 -10 2 -26 0
-35z m36 5 c-3 -18 -7 -35 -10 -38 -2 -3 -2 11 0 30 6 41 6 40 11 40 2 0 2
-15 -1 -32z m-356 0 c-3 -8 -6 -5 -6 6 -1 11 2 17 5 13 3 -3 4 -12 1 -19z
m182 -28 c-2 -27 -6 -55 -11 -62 -5 -8 -6 -3 -4 12 3 14 5 42 5 63 1 20 3 37
6 37 4 0 5 -22 4 -50z m3960 -29 c-17 -73 -16 -71 -19 -73 -1 -2 -3 -11 -5
-20 -18 -92 -127 -343 -210 -483 -128 -214 -307 -418 -464 -529 -44 -31 -83
-61 -87 -67 -12 -20 -334 -221 -494 -309 -52 -29 -99 -56 -105 -60 -9 -7 -185
-96 -302 -154 -29 -15 -53 -24 -53 -21 0 3 42 26 93 51 258 130 729 407 837
494 25 20 76 58 114 84 274 194 562 635 656 1006 37 147 43 165 48 151 2 -7
-1 -39 -9 -70z m-3999 -18 l-5 -78 -3 64 c-3 56 1 91 10 91 2 0 1 -35 -2 -77z
m133 -14 c-4 -4 -6 13 -3 39 l5 47 3 -39 c2 -21 0 -42 -5 -47z m144 59 c-3 -8
-6 -5 -6 6 -1 11 2 17 5 13 3 -3 4 -12 1 -19z m-420 -20 c-3 -7 -5 -2 -5 12 0
14 2 19 5 13 2 -7 2 -19 0 -25z m210 10 c-3 -8 -6 -5 -6 6 -1 11 2 17 5 13 3
-3 4 -12 1 -19z m36 -8 c-3 -12 -8 -19 -11 -16 -5 6 5 36 12 36 2 0 2 -9 -1
-20z m-316 -10 c-2 -11 -6 -22 -9 -26 -4 -3 -5 2 -3 13 2 10 4 21 4 26 1 4 3
7 6 7 3 0 4 -9 2 -20z m100 -117 c-2 -27 -3 -5 -3 47 0 52 1 74 3 48 2 -27 2
-69 0 -95z m280 90 c-3 -10 -5 -4 -5 12 0 17 2 24 5 18 2 -7 2 -21 0 -30z
m-100 5 c-3 -8 -6 -5 -6 6 -1 11 2 17 5 13 3 -3 4 -12 1 -19z m-210 -10 c-3
-8 -6 -5 -6 6 -1 11 2 17 5 13 3 -3 4 -12 1 -19z m480 0 c-3 -8 -6 -5 -6 6 -1
11 2 17 5 13 3 -3 4 -12 1 -19z m-700 -20 c-3 -7 -5 -2 -5 12 0 14 2 19 5 13
2 -7 2 -19 0 -25z m460 -150 c-2 -35 -3 -7 -3 62 0 69 1 97 3 63 2 -35 2 -91
0 -125z m170 150 c-3 -7 -5 -2 -5 12 0 14 2 19 5 13 2 -7 2 -19 0 -25z m-477
8 c0 -3 -4 -8 -10 -11 -5 -3 -10 -1 -10 4 0 6 5 11 10 11 6 0 10 -2 10 -4z
m67 -28 c-3 -8 -6 -5 -6 6 -1 11 2 17 5 13 3 -3 4 -12 1 -19z m170 -90 c-2
-24 -4 -7 -4 37 0 44 2 63 4 43 2 -21 2 -57 0 -80z m140 60 c-2 -13 -4 -5 -4
17 -1 22 1 32 4 23 2 -10 2 -28 0 -40z m3808 -133 c-59 -163 -136 -313 -235
-459 -114 -171 -263 -335 -375 -416 -33 -24 -82 -62 -110 -85 -83 -68 -314
-213 -540 -337 -111 -61 -387 -199 -391 -195 -2 2 44 28 104 58 123 62 414
222 454 250 14 11 29 19 33 19 3 0 26 14 50 30 24 17 46 30 48 30 9 0 207 137
298 206 292 220 537 567 660 936 30 89 35 105 40 138 1 8 4 1 6 -16 3 -20 -12
-77 -42 -159z m-4048 155 c1 -11 -2 -22 -6 -24 -6 -4 -7 26 -2 42 3 8 7 -1 8
-18z m470 -2 c-3 -8 -6 -5 -6 6 -1 11 2 17 5 13 3 -3 4 -12 1 -19z m-612 -23
c1 -14 -2 -22 -5 -19 -3 3 -5 16 -5 29 -1 14 2 22 5 19 3 -3 5 -16 5 -29z
m351 15 c0 -12 -4 -16 -9 -11 -5 5 -6 14 -3 20 10 15 12 14 12 -9z m131 -92
c-2 -24 -4 -7 -4 37 0 44 2 63 4 43 2 -21 2 -57 0 -80z m-416 69 c-10 -9 -11
-8 -5 6 3 10 9 15 12 12 3 -3 0 -11 -7 -18z m446 -54 c-2 -16 -4 -5 -4 22 0
28 2 40 4 28 2 -13 2 -35 0 -50z m-580 28 c0 -11 -5 -18 -9 -15 -4 3 -5 11 -1
19 7 21 12 19 10 -4z m210 -3 c-3 -8 -6 -5 -6 6 -1 11 2 17 5 13 3 -3 4 -12 1
-19z m70 -100 c-2 -18 -4 -4 -4 32 0 36 2 50 4 33 2 -18 2 -48 0 -65z m-210
20 c-2 -13 -4 -3 -4 22 0 25 2 35 4 23 2 -13 2 -33 0 -45z m140 40 c-3 -8 -6
-5 -6 6 -1 11 2 17 5 13 3 -3 4 -12 1 -19z m240 -10 c-3 -7 -5 -2 -5 12 0 14
2 19 5 13 2 -7 2 -19 0 -25z m-450 -30 c-2 -13 -4 -5 -4 17 -1 22 1 32 4 23 2
-10 2 -28 0 -40z m170 20 c-3 -7 -5 -2 -5 12 0 14 2 19 5 13 2 -7 2 -19 0 -25z
m-240 -10 c-3 -7 -5 -2 -5 12 0 14 2 19 5 13 2 -7 2 -19 0 -25z m490 2 c1 -11
-2 -22 -6 -24 -6 -4 -7 26 -2 42 3 8 7 -1 8 -18z m260 -2 c-3 -8 -6 -5 -6 6
-1 11 2 17 5 13 3 -3 4 -12 1 -19z m-567 2 c0 -5 -2 -10 -4 -10 -3 0 -8 5 -11
10 -3 6 -1 10 4 10 6 0 11 -4 11 -10z m97 -37 c-3 -10 -5 -2 -5 17 0 19 2 27
5 18 2 -10 2 -26 0 -35z m4049 -104 c-81 -190 -185 -359 -329 -539 -94 -116
-148 -170 -252 -250 -38 -29 -84 -65 -101 -80 -54 -46 -284 -194 -439 -282
-141 -80 -476 -249 -492 -248 -5 1 69 39 162 87 384 193 727 413 948 606 184
160 448 564 524 799 13 42 19 51 21 35 2 -13 -17 -71 -42 -128z m-4289 94 c-3
-10 -5 -4 -5 12 0 17 2 24 5 18 2 -7 2 -21 0 -30z m70 -20 c-3 -10 -5 -2 -5
17 0 19 2 27 5 18 2 -10 2 -26 0 -35z m70 0 c-3 -10 -5 -2 -5 17 0 19 2 27 5
18 2 -10 2 -26 0 -35z m30 25 c-3 -8 -6 -5 -6 6 -1 11 2 17 5 13 3 -3 4 -12 1
-19z m180 0 c-3 -8 -6 -5 -6 6 -1 11 2 17 5 13 3 -3 4 -12 1 -19z m230 -10
c-3 -7 -5 -2 -5 12 0 14 2 19 5 13 2 -7 2 -19 0 -25z m160 0 c-3 -8 -6 -5 -6
6 -1 11 2 17 5 13 3 -3 4 -12 1 -19z m-530 -35 c-3 -10 -5 -2 -5 17 0 19 2 27
5 18 2 -10 2 -26 0 -35z m240 10 c-3 -10 -5 -4 -5 12 0 17 2 24 5 18 2 -7 2
-21 0 -30z m-170 -5 c-3 -7 -5 -2 -5 12 0 14 2 19 5 13 2 -7 2 -19 0 -25z
m-29 -3 c-3 -3 -9 2 -12 12 -6 14 -5 15 5 6 7 -7 10 -15 7 -18z m-204 -20 c5
-22 4 -26 -4 -15 -5 8 -10 24 -10 34 0 26 6 18 14 -19z m373 -32 c-2 -16 -4
-5 -4 22 0 28 2 40 4 28 2 -13 2 -35 0 -50z m-70 20 c-3 -10 -5 -4 -5 12 0 17
2 24 5 18 2 -7 2 -21 0 -30z m-170 -5 c-3 -7 -5 -2 -5 12 0 14 2 19 5 13 2 -7
2 -19 0 -25z m-170 0 c-3 -8 -6 -5 -6 6 -1 11 2 17 5 13 3 -3 4 -12 1 -19z
m240 -15 c-3 -10 -5 -4 -5 12 0 17 2 24 5 18 2 -7 2 -21 0 -30z m40 22 c0 -8
-4 -12 -9 -9 -5 3 -6 10 -3 15 9 13 12 11 12 -6z m230 -22 c-3 -10 -5 -4 -5
12 0 17 2 24 5 18 2 -7 2 -21 0 -30z m-440 5 c-3 -8 -6 -5 -6 6 -1 11 2 17 5
13 3 -3 4 -12 1 -19z m70 -10 c-3 -7 -5 -2 -5 12 0 14 2 19 5 13 2 -7 2 -19 0
-25z m170 0 c-3 -7 -5 -2 -5 12 0 14 2 19 5 13 2 -7 2 -19 0 -25z m-100 -20
c-3 -7 -5 -2 -5 12 0 14 2 19 5 13 2 -7 2 -19 0 -25z m4107 6 c-14 -54 -110
-233 -193 -358 -140 -213 -228 -312 -406 -455 -200 -162 -393 -286 -655 -424
-122 -64 -323 -157 -338 -157 -4 0 70 38 163 84 408 199 773 442 975 646 148
149 310 384 411 598 24 50 45 92 47 92 1 0 -1 -12 -4 -26z m-4277 -6 c-3 -8
-6 -5 -6 6 -1 11 2 17 5 13 3 -3 4 -12 1 -19z m240 -15 c-3 -10 -5 -4 -5 12 0
17 2 24 5 18 2 -7 2 -21 0 -30z m170 15 c-3 -8 -6 -5 -6 6 -1 11 2 17 5 13 3
-3 4 -12 1 -19z m-440 -10 c-3 -8 -6 -5 -6 6 -1 11 2 17 5 13 3 -3 4 -12 1
-19z m100 0 c-3 -8 -6 -5 -6 6 -1 11 2 17 5 13 3 -3 4 -12 1 -19z m240 -10
c-3 -8 -6 -5 -6 6 -1 11 2 17 5 13 3 -3 4 -12 1 -19z m-270 -20 c-3 -7 -5 -2
-5 12 0 14 2 19 5 13 2 -7 2 -19 0 -25z m73 22 c0 -5 -2 -10 -4 -10 -3 0 -8 5
-11 10 -3 6 -1 10 4 10 6 0 11 -4 11 -10z m167 -22 c-3 -8 -6 -5 -6 6 -1 11 2
17 5 13 3 -3 4 -12 1 -19z m200 0 c-3 -8 -6 -5 -6 6 -1 11 2 17 5 13 3 -3 4
-12 1 -19z m-470 -10 c-3 -8 -6 -5 -6 6 -1 11 2 17 5 13 3 -3 4 -12 1 -19z
m370 0 c-3 -8 -6 -5 -6 6 -1 11 2 17 5 13 3 -3 4 -12 1 -19z m200 0 c-3 -8 -6
-5 -6 6 -1 11 2 17 5 13 3 -3 4 -12 1 -19z m-400 -10 c-3 -8 -6 -5 -6 6 -1 11
2 17 5 13 3 -3 4 -12 1 -19z m370 -10 c-3 -8 -6 -5 -6 6 -1 11 2 17 5 13 3 -3
4 -12 1 -19z m-430 -25 c-3 -10 -5 -4 -5 12 0 17 2 24 5 18 2 -7 2 -21 0 -30z
m130 15 c-3 -8 -6 -5 -6 6 -1 11 2 17 5 13 3 -3 4 -12 1 -19z m400 -10 c-3 -8
-6 -5 -6 6 -1 11 2 17 5 13 3 -3 4 -12 1 -19z m-460 -20 c-3 -7 -5 -2 -5 12 0
14 2 19 5 13 2 -7 2 -19 0 -25z m130 10 c-3 -8 -6 -5 -6 6 -1 11 2 17 5 13 3
-3 4 -12 1 -19z m-60 -30 c-3 -8 -6 -5 -6 6 -1 11 2 17 5 13 3 -3 4 -12 1 -19z
m3993 -15 c-17 -46 -32 -73 -103 -187 -120 -193 -269 -369 -402 -475 -38 -30
-79 -64 -90 -74 -57 -54 -264 -191 -435 -289 -166 -95 -525 -266 -536 -255 -2
2 40 23 94 46 218 97 586 302 735 411 112 81 306 241 353 291 118 125 260 324
342 476 45 85 59 104 42 56z m-3883 -25 c-3 -8 -6 -5 -6 6 -1 11 2 17 5 13 3
-3 4 -12 1 -19z m2673 18 c0 -2 -8 -10 -17 -17 -16 -13 -17 -12 -4 4 13 16 21
21 21 13z m-2932 -31 c-3 -3 -9 2 -12 12 -6 14 -5 15 5 6 7 -7 10 -15 7 -18z
m2862 21 c0 -3 -15 -14 -32 -26 l-33 -22 30 26 c31 27 35 29 35 22z m30 -20
c0 -2 -8 -10 -17 -17 -16 -13 -17 -12 -4 4 13 16 21 21 21 13z m30 -20 c0 -2
-8 -10 -17 -17 -16 -13 -17 -12 -4 4 13 16 21 21 21 13z m-40 -31 c0 -2 -10
-9 -22 -15 -22 -11 -22 -10 -4 4 21 17 26 19 26 11z m-110 -29 c0 -2 -7 -7
-16 -10 -8 -3 -12 -2 -9 4 6 10 25 14 25 6z m25 -26 c-3 -5 -12 -10 -18 -10
-7 0 -6 4 3 10 19 12 23 12 15 0z m125 -4 c-16 -15 -159 -95 -148 -82 6 8 148
93 158 95 2 1 -2 -5 -10 -13z m1184 -8 c-8 -26 -85 -144 -152 -233 -93 -123
-217 -255 -293 -311 -17 -12 -47 -38 -67 -56 -95 -88 -385 -272 -605 -384
-129 -66 -337 -157 -344 -151 -2 2 27 17 64 32 192 80 475 235 668 364 302
203 497 396 666 661 35 55 65 100 67 100 2 0 0 -10 -4 -22z m-1254 7 c0 -2
-10 -9 -22 -15 -22 -11 -22 -10 -4 4 21 17 26 19 26 11z m-160 -9 c0 -2 -7 -7
-16 -10 -8 -3 -12 -2 -9 4 6 10 25 14 25 6z m110 -20 c0 -2 -7 -7 -16 -10 -8
-3 -12 -2 -9 4 6 10 25 14 25 6z m-155 -36 c-3 -5 -12 -10 -18 -10 -7 0 -6 4
3 10 19 12 23 12 15 0z m95 6 c0 -2 -7 -7 -16 -10 -8 -3 -12 -2 -9 4 6 10 25
14 25 6z m130 -11 c0 -6 -97 -55 -107 -55 -4 1 17 14 47 30 61 32 60 32 60 25z
m55 -11 c-24 -19 -111 -64 -122 -64 -8 0 127 78 137 79 3 0 -4 -7 -15 -15z
m-175 -14 c-8 -5 -19 -10 -25 -10 -5 0 -3 5 5 10 8 5 20 10 25 10 6 0 3 -5 -5
-10z m-290 -4 c0 -2 -7 -7 -16 -10 -8 -3 -12 -2 -9 4 6 10 25 14 25 6z m-212
-35 c-174 -74 -318 -205 -401 -366 -14 -27 -26 -46 -27 -42 0 15 53 113 96
173 73 103 211 206 339 252 62 22 57 10 -7 -17z m327 4 c-27 -13 -54 -24 -60
-24 -5 1 13 11 40 24 28 13 55 24 60 24 6 -1 -12 -11 -40 -24z m135 21 c0 -2
-7 -7 -16 -10 -8 -3 -12 -2 -9 4 6 10 25 14 25 6z m-313 -12 c-3 -3 -12 -4
-19 -1 -8 3 -5 6 6 6 11 1 17 -2 13 -5z m93 -4 c-8 -5 -19 -10 -25 -10 -5 0
-3 5 5 10 8 5 20 10 25 10 6 0 3 -5 -5 -10z m-150 -7 c0 -5 -21 -16 -48 -27
-132 -53 -298 -188 -386 -316 -48 -68 -39 -38 10 35 40 62 143 164 206 207 37
25 89 51 188 96 32 14 30 13 30 5z m320 3 c0 -7 -110 -56 -124 -56 -6 0 18 14
54 30 71 32 70 32 70 26z m15 -36 c-44 -21 -84 -39 -90 -39 -5 0 26 18 70 39
44 21 85 38 90 38 6 0 -26 -17 -70 -38z m-351 -24 c-51 -24 -120 -63 -155 -87
-108 -73 -231 -207 -287 -314 -12 -22 -21 -36 -22 -32 0 12 36 80 72 134 44
66 161 181 233 230 56 37 217 113 240 113 6 0 -31 -20 -81 -44z m466 40 c0 -5
-150 -76 -159 -75 -5 0 149 79 156 79 2 0 3 -2 3 -4z m1259 -28 c-29 -54 -205
-270 -259 -318 -10 -8 -42 -36 -71 -61 -30 -26 -70 -61 -89 -78 -53 -47 -171
-130 -305 -216 -116 -74 -480 -263 -489 -254 -3 2 66 40 152 83 265 133 504
289 691 450 120 104 209 199 303 326 70 94 94 118 67 68z m-1651 -22 c-205
-89 -352 -215 -496 -423 -10 -15 -11 -14 -1 7 38 80 157 221 244 287 88 67
273 163 315 163 8 0 -20 -15 -62 -34z m122 10 c0 -2 -26 -13 -57 -24 -171 -63
-391 -235 -501 -392 -56 -80 -73 -98 -42 -45 81 138 205 263 349 353 85 53
251 124 251 108z m270 0 c0 -8 -103 -57 -108 -51 -3 2 19 16 49 30 59 27 59
27 59 21z m-240 -28 c-84 -36 -215 -108 -279 -152 -91 -62 -233 -196 -292
-273 -53 -71 -69 -88 -45 -48 62 102 198 243 316 327 86 62 277 157 315 157 6
0 -1 -5 -15 -11z m-56 -73 c-71 -36 -169 -94 -218 -129 -101 -73 -232 -197
-283 -268 -19 -26 -37 -48 -40 -48 -2 0 14 26 37 59 57 80 180 201 279 272 98
70 300 174 345 178 5 1 -49 -28 -120 -64z m56 -18 c-201 -100 -316 -185 -487
-355 -43 -43 -63 -59 -46 -37 123 159 359 335 572 426 109 47 93 33 -39 -34z
m49 -20 c-199 -102 -349 -208 -508 -361 -47 -44 -60 -54 -36 -26 22 25 44 51
50 58 5 7 48 45 95 85 132 112 292 213 440 278 106 46 90 33 -41 -34z m1390 1
c-20 -39 -145 -181 -195 -223 -26 -22 -69 -59 -95 -83 -26 -24 -80 -67 -120
-97 -41 -30 -78 -58 -84 -62 -18 -15 -199 -129 -249 -158 -143 -82 -501 -243
-513 -232 -2 3 6 8 19 12 13 4 84 35 158 68 428 191 810 463 1032 735 55 66
66 75 47 40z m-86 -168 c-5 -19 -49 -63 -168 -167 -78 -69 -69 -62 -171 -136
-115 -83 -309 -198 -454 -269 -119 -58 -320 -142 -326 -135 -2 2 33 18 79 36
371 150 769 405 992 637 28 29 51 53 52 53 0 1 -1 -8 -4 -19z m-2040 -55 c-3
-9 -8 -14 -10 -11 -3 3 -2 9 2 15 9 16 15 13 8 -4z m-1762 -42 c13 -16 12 -17
-3 -4 -10 7 -18 15 -18 17 0 8 8 3 21 -13z m40 0 c13 -16 12 -17 -3 -4 -10 7
-18 15 -18 17 0 8 8 3 21 -13z m-10 -40 c13 -16 12 -17 -3 -4 -10 7 -18 15
-18 17 0 8 8 3 21 -13z m3680 -10 c-24 -45 -163 -156 -337 -269 -122 -80 -429
-242 -439 -232 -3 3 29 22 72 42 226 107 502 287 653 425 62 56 65 58 51 34z
m-3800 -60 c42 -64 194 -227 269 -289 20 -16 29 -25 20 -19 -89 55 -274 252
-326 348 -25 47 -10 30 37 -40z m41 2 c25 -33 80 -98 123 -145 45 -48 56 -63
26 -35 -60 57 -156 170 -185 217 -28 46 -16 33 36 -37z m43 3 c26 -35 39 -55
28 -45 -20 18 -87 107 -80 107 2 0 25 -28 52 -62z m10 42 c10 -11 16 -20 13
-20 -3 0 -13 9 -23 20 -10 11 -16 20 -13 20 3 0 13 -9 23 -20z m-231 -16 c3
-8 2 -12 -4 -9 -6 3 -10 10 -10 16 0 14 7 11 14 -7z m291 -4 c10 -11 16 -20
13 -20 -3 0 -13 9 -23 20 -10 11 -16 20 -13 20 3 0 13 -9 23 -20z m46 -7 c13
-16 12 -17 -3 -4 -10 7 -18 15 -18 17 0 8 8 3 21 -13z m-36 -60 c27 -32 39
-49 26 -38 -24 21 -86 95 -79 95 2 0 26 -26 53 -57z m40 7 c10 -11 16 -20 13
-20 -3 0 -13 9 -23 20 -10 11 -16 20 -13 20 3 0 13 -9 23 -20z m-81 -166 c50
-50 107 -103 126 -117 19 -15 32 -27 28 -27 -8 0 -115 88 -156 128 -32 32
-124 140 -137 162 -6 9 3 0 19 -20 17 -19 71 -76 120 -126z m141 146 c10 -11
16 -20 13 -20 -3 0 -13 9 -23 20 -10 11 -16 20 -13 20 3 0 13 -9 23 -20z
m1699 -15 c-9 -14 -18 -25 -21 -25 -5 0 5 18 20 38 17 22 18 13 1 -13z m-2074
-15 c6 -11 8 -20 6 -20 -3 0 -10 9 -16 20 -6 11 -8 20 -6 20 3 0 10 -9 16 -20z
m45 -6 c9 -15 12 -23 6 -20 -11 7 -35 46 -28 46 3 0 12 -12 22 -26z m45 -4
c12 -16 19 -30 16 -30 -2 0 -14 14 -26 30 -12 17 -19 30 -16 30 2 0 14 -13 26
-30z m230 -47 l75 -78 -77 75 c-43 41 -78 76 -78 77 0 8 11 -3 80 -74z m1783
53 c-10 -13 -20 -22 -22 -20 -4 4 29 44 36 44 2 0 -4 -11 -14 -24z m1701 -7
c-53 -60 -262 -196 -439 -286 -118 -60 -387 -173 -409 -173 -6 1 34 19 89 41
263 105 541 260 719 400 54 44 68 50 40 18z m-3383 -6 c13 -16 12 -17 -3 -4
-10 7 -18 15 -18 17 0 8 8 3 21 -13z m-65 -25 l19 -23 -25 20 c-14 11 -27 21
-29 22 -2 2 0 3 6 3 5 0 18 -10 29 -22z m1814 8 c0 -3 -4 -8 -10 -11 -5 -3
-10 -1 -10 4 0 6 5 11 10 11 6 0 10 -2 10 -4z m-1995 -131 c94 -94 124 -119
190 -156 75 -42 70 -48 -7 -7 -65 35 -265 221 -287 268 -10 21 -8 20 11 -5 12
-16 54 -61 93 -100z m120 -61 c28 -22 67 -51 88 -63 20 -12 37 -25 37 -28 0
-20 -174 113 -246 189 -77 81 -76 92 2 13 38 -38 92 -88 119 -111z m1831 148
c-17 -16 -18 -16 -5 5 7 12 15 20 18 17 3 -2 -3 -12 -13 -22z m-2116 -2 c6
-11 8 -20 6 -20 -3 0 -10 9 -16 20 -6 11 -8 20 -6 20 3 0 10 -9 16 -20z m59
-25 c64 -87 206 -212 289 -255 43 -22 56 -35 25 -23 -26 10 -82 43 -123 72
-50 36 -192 183 -214 222 -21 37 -12 31 23 -16z m2111 41 c0 -2 -8 -10 -17
-17 -16 -13 -17 -12 -4 4 13 16 21 21 21 13z m-1779 -23 c13 -16 12 -17 -3 -4
-10 7 -18 15 -18 17 0 8 8 3 21 -13z m1819 14 c0 -2 -17 -19 -37 -38 l-38 -34
34 38 c33 34 41 42 41 34z m-2194 -93 c38 -57 129 -150 194 -200 41 -31 188
-104 209 -104 8 0 11 -3 8 -6 -10 -11 -124 36 -188 77 -98 63 -183 152 -252
262 -33 51 -8 27 29 -29z m114 -74 c78 -79 131 -118 219 -163 42 -21 65 -35
51 -32 -113 33 -277 161 -358 281 l-34 49 33 -40 c18 -22 58 -65 89 -95z
m2130 116 c0 -2 -8 -10 -17 -17 -16 -13 -17 -12 -4 4 13 16 21 21 21 13z
m1434 -17 c-39 -43 -278 -178 -449 -254 -84 -37 -217 -86 -222 -82 -2 2 32 17
74 32 115 41 372 171 498 253 61 39 112 71 114 71 2 1 -4 -8 -15 -20z m-3314
-24 c13 -14 21 -25 18 -25 -2 0 -15 11 -28 25 -13 14 -21 25 -18 25 2 0 15
-11 28 -25z m1900 11 c0 -2 -12 -11 -27 -20 l-28 -17 24 20 c23 21 31 25 31
17z m-2299 -23 c13 -16 12 -17 -3 -4 -17 13 -22 21 -14 21 2 0 10 -8 17 -17z
m93 -121 c83 -91 220 -176 334 -207 26 -7 40 -14 31 -14 -23 -1 -129 33 -176
57 -94 48 -230 176 -267 252 -4 8 3 2 16 -15 12 -16 40 -49 62 -73z m2306 83
c0 -2 -13 -11 -30 -20 -38 -19 -40 -11 -2 9 31 17 32 18 32 11z m56 -10 c-11
-8 -25 -15 -30 -15 -6 1 0 7 14 15 32 19 40 18 16 0z m-2403 -84 c66 -81 182
-166 277 -204 78 -32 65 -36 -17 -6 -111 41 -216 129 -311 261 -30 41 -2 13
51 -51z m-55 12 c95 -145 265 -258 419 -279 69 -9 69 -17 1 -10 -112 13 -227
67 -311 145 -41 38 -116 131 -136 169 -20 38 -6 24 27 -25z m462 7 c8 -5 11
-10 5 -10 -5 0 -21 10 -35 21 -24 20 -5 13 30 -11z m1985 20 c-3 -5 -12 -10
-18 -10 -7 0 -6 4 3 10 19 12 23 12 15 0z m-2495 -20 c6 -11 8 -20 6 -20 -3 0
-10 9 -16 20 -6 11 -8 20 -6 20 3 0 10 -9 16 -20z m2405 10 c-3 -5 -12 -10
-18 -10 -7 0 -6 4 3 10 19 12 23 12 15 0z m155 6 c0 -2 -7 -7 -16 -10 -8 -3
-12 -2 -9 4 6 10 25 14 25 6z m60 -10 c0 -2 -7 -7 -16 -10 -8 -3 -12 -2 -9 4
6 10 25 14 25 6z m30 -26 c-8 -5 -19 -10 -25 -10 -5 0 -3 5 5 10 8 5 20 10 25
10 6 0 3 -5 -5 -10z m-310 -4 c0 -2 -7 -7 -16 -10 -8 -3 -12 -2 -9 4 6 10 25
14 25 6z m-1825 -24 c-3 -3 -11 0 -18 7 -9 10 -8 11 6 5 10 -3 15 -9 12 -12z
m2095 14 c0 -2 -7 -7 -16 -10 -8 -3 -12 -2 -9 4 6 10 25 14 25 6z m70 -11
c-14 -8 -29 -14 -35 -14 -5 0 1 6 15 14 14 8 30 14 35 14 6 0 -1 -6 -15 -14z
m295 7 c-13 -11 -115 -52 -129 -52 -6 0 18 14 54 29 68 30 91 37 75 23z
m-2974 -29 c13 -16 12 -17 -3 -4 -10 7 -18 15 -18 17 0 8 8 3 21 -13z m136
-106 c49 -45 152 -105 211 -124 28 -9 52 -20 52 -24 0 -8 -29 0 -95 24 -59 21
-162 95 -206 148 -59 71 -82 106 -33 49 22 -24 54 -57 71 -73z m2573 103 c-8
-5 -19 -10 -25 -10 -5 0 -3 5 5 10 8 5 20 10 25 10 6 0 3 -5 -5 -10z m-2195
-10 c3 -6 -1 -7 -9 -4 -18 7 -21 14 -7 14 6 0 13 -4 16 -10z m2660 2 c-13 -12
-176 -74 -181 -70 -4 4 164 75 181 77 6 1 6 -2 0 -7z m-3101 -85 c51 -61 137
-125 209 -156 37 -16 105 -30 212 -45 17 -3 -10 -2 -59 0 -98 6 -175 30 -246
77 -52 34 -139 124 -165 171 -21 36 -16 32 49 -47z m426 53 c8 -5 11 -10 5
-10 -5 0 -17 5 -25 10 -8 5 -10 10 -5 10 6 0 17 -5 25 -10z m2340 -20 c-8 -5
-19 -10 -25 -10 -5 0 -3 5 5 10 8 5 20 10 25 10 6 0 3 -5 -5 -10z m-2860 -31
c15 -28 5 -23 -15 7 -9 15 -12 23 -6 20 6 -4 16 -16 21 -27z m2940 21 c-8 -5
-22 -9 -30 -9 -10 0 -8 3 5 9 27 12 43 12 25 0z m-2859 -69 c46 -57 143 -125
217 -155 24 -9 70 -19 103 -23 32 -3 59 -9 59 -13 0 -5 -8 -7 -17 -5 -10 2
-43 6 -72 9 -62 6 -178 58 -226 103 -35 32 -125 140 -125 150 0 8 0 7 61 -66z
m2909 49 c-8 -5 -22 -9 -30 -9 -10 0 -8 3 5 9 27 12 43 12 25 0z m-3020 -20
c6 -11 8 -20 6 -20 -3 0 -10 9 -16 20 -6 11 -8 20 -6 20 3 0 10 -9 16 -20z
m135 -110 c90 -93 216 -144 342 -139 35 1 65 0 68 -3 3 -3 -36 -6 -88 -7 -75
-2 -106 2 -153 20 -96 36 -171 97 -239 194 -15 22 -18 29 -6 15 12 -14 46 -50
76 -80z m2985 90 c-8 -5 -22 -9 -30 -9 -10 0 -8 3 5 9 27 12 43 12 25 0z
m-3103 -67 c57 -91 142 -169 220 -205 56 -25 82 -31 145 -32 43 0 78 -4 78 -8
0 -14 -135 -8 -186 7 -73 21 -139 69 -198 144 -56 71 -110 151 -101 151 3 0
22 -26 42 -57z m91 -55 c83 -89 181 -138 292 -143 81 -5 85 -6 35 -14 -49 -8
-103 1 -177 29 -67 25 -158 106 -213 190 -23 36 -26 43 -8 20 15 -19 48 -56
71 -82z m2962 108 c0 -2 -9 -6 -20 -9 -11 -3 -18 -1 -14 4 5 9 34 13 34 5z
m-55 -16 c-3 -5 -12 -10 -18 -10 -7 0 -6 4 3 10 19 12 23 12 15 0z m-3085 -30
c6 -11 8 -20 6 -20 -3 0 -10 9 -16 20 -6 11 -8 20 -6 20 3 0 10 -9 16 -20z
m613 3 c-7 -2 -21 -2 -30 0 -10 3 -4 5 12 5 17 0 24 -2 18 -5z m64 -9 c-3 -3
-12 -4 -19 -1 -8 3 -5 6 6 6 11 1 17 -2 13 -5z m-592 -61 c100 -151 240 -233
380 -221 24 1 41 0 37 -4 -12 -12 -103 -15 -145 -6 -98 21 -189 92 -265 206
-47 70 -54 82 -49 82 2 0 21 -26 42 -57z m505 1 c0 -2 -13 -4 -30 -4 -16 0
-30 4 -30 8 0 5 14 7 30 4 17 -2 30 -6 30 -8z m-580 -14 c6 -11 8 -20 6 -20
-3 0 -10 9 -16 20 -6 11 -8 20 -6 20 3 0 10 -9 16 -20z m63 -32 c112 -158 215
-220 361 -220 43 0 54 -2 36 -8 -49 -15 -148 -3 -203 24 -73 35 -156 122 -223
231 -25 41 -10 27 29 -27z m-52 -50 c113 -184 235 -265 387 -254 53 4 62 3 42
-6 -45 -19 -150 -14 -202 9 -42 19 -127 93 -168 148 -44 58 -105 155 -97 155
3 0 20 -24 38 -52z m19 32 c6 -11 8 -20 6 -20 -3 0 -10 9 -16 20 -6 11 -8 20
-6 20 3 0 10 -9 16 -20z m-62 -35 c-3 -3 -9 2 -12 12 -6 14 -5 15 5 6 7 -7 10
-15 7 -18z m92 -4 c0 -16 101 -121 146 -152 51 -35 139 -56 214 -53 l55 2 -40
-10 c-57 -14 -146 -4 -200 23 -61 30 -218 199 -186 199 6 0 11 -4 11 -9z
m-100 -41 c6 -11 8 -20 6 -20 -3 0 -10 9 -16 20 -6 11 -8 20 -6 20 3 0 10 -9
16 -20z m98 -81 c68 -86 106 -119 174 -149 47 -21 126 -27 188 -16 26 5 30 4
14 -3 -36 -16 -112 -24 -159 -17 -62 10 -148 76 -216 167 -94 126 -95 136 -1
18z m-113 41 c9 -16 13 -30 11 -30 -3 0 -12 14 -21 30 -9 17 -13 30 -11 30 3
0 12 -13 21 -30z m67 -43 c49 -74 145 -165 198 -190 47 -22 133 -28 200 -15
l35 7 -35 -16 c-59 -26 -139 -25 -196 1 -50 24 -145 113 -187 176 -46 68 -59
90 -55 90 3 0 21 -24 40 -53z m545 47 c-3 -3 -12 -4 -19 -1 -8 3 -5 6 6 6 11
1 17 -2 13 -5z m-14 -41 c-7 -2 -19 -2 -25 0 -7 3 -2 5 12 5 14 0 19 -2 13 -5z
m-548 -43 c42 -66 150 -174 200 -199 58 -29 159 -32 218 -8 21 9 35 12 32 7
-10 -15 -105 -42 -154 -43 -68 -1 -129 32 -203 111 -56 59 -136 172 -123 172
3 0 16 -18 30 -40z m-75 -10 c6 -11 8 -20 6 -20 -3 0 -10 9 -16 20 -6 11 -8
20 -6 20 3 0 10 -9 16 -20z m151 -144 c100 -107 203 -140 313 -101 46 16 35 3
-14 -17 -99 -40 -196 -12 -285 83 -53 56 -145 180 -145 195 0 5 16 -15 35 -43
19 -29 62 -82 96 -117z m446 158 c-3 -3 -12 -4 -19 -1 -8 3 -5 6 6 6 11 1 17
-2 13 -5z m-10 -40 c-3 -3 -12 -4 -19 -1 -8 3 -5 6 6 6 11 1 17 -2 13 -5z
m-496 -109 c118 -151 210 -194 337 -161 63 16 57 5 -8 -17 -55 -19 -125 -15
-170 8 -32 17 -128 107 -160 151 -42 58 -58 81 -69 104 -10 21 -9 22 1 6 7
-10 38 -51 69 -91z m489 75 c-8 -5 -19 -10 -25 -10 -5 0 -3 5 5 10 8 5 20 10
25 10 6 0 3 -5 -5 -10z m-570 -20 c6 -11 8 -20 6 -20 -3 0 -10 9 -16 20 -6 11
-8 20 -6 20 3 0 10 -9 16 -20z m-7 -57 c47 -76 121 -162 177 -207 75 -60 142
-72 245 -42 11 4 0 -3 -25 -15 -89 -43 -164 -22 -258 72 -49 48 -143 173 -171
227 -22 42 -4 22 32 -35z m99 -74 c104 -124 199 -166 308 -133 60 18 62 10 3
-12 -76 -30 -135 -23 -201 23 -55 37 -144 137 -176 197 -17 31 -17 31 1 6 10
-13 39 -50 65 -81z"/>
</g>
</svg>
